<svg id="visual" viewBox="0 0 960 390" width="960" height="390" xmlns="http://www.w3.org/2000/svg" xmlns:xlink="http://www.w3.org/1999/xlink" version="1.1"><rect x="0" y="0" width="960" height="390" fill="#0D1821"></rect><path d="M0 154L74 158L148 162L222 170L295 185L369 191L443 159L517 164L591 196L665 143L738 129L812 164L886 161L960 202L960 0L886 0L812 0L738 0L665 0L591 0L517 0L443 0L369 0L295 0L222 0L148 0L74 0L0 0Z" fill="#164892"></path><path d="M0 158L74 172L148 159L222 142L295 177L369 143L443 164L517 135L591 149L665 181L738 172L812 183L886 151L960 147L960 0L886 0L812 0L738 0L665 0L591 0L517 0L443 0L369 0L295 0L222 0L148 0L74 0L0 0Z" fill="#174e9f"></path><path d="M0 119L74 146L148 157L222 145L295 112L369 132L443 101L517 115L591 142L665 104L738 151L812 130L886 148L960 106L960 0L886 0L812 0L738 0L665 0L591 0L517 0L443 0L369 0L295 0L222 0L148 0L74 0L0 0Z" fill="#1754ac"></path><path d="M0 112L74 108L148 104L222 116L295 118L369 93L443 99L517 105L591 90L665 122L738 104L812 110L886 144L960 94L960 0L886 0L812 0L738 0L665 0L591 0L517 0L443 0L369 0L295 0L222 0L148 0L74 0L0 0Z" fill="#185bb9"></path><path d="M0 111L74 81L148 121L222 113L295 84L369 83L443 86L517 99L591 102L665 123L738 119L812 80L886 97L960 88L960 0L886 0L812 0L738 0L665 0L591 0L517 0L443 0L369 0L295 0L222 0L148 0L74 0L0 0Z" fill="#1961c7"></path><path d="M0 88L74 71L148 87L222 81L295 69L369 91L443 58L517 72L591 98L665 95L738 82L812 92L886 89L960 75L960 0L886 0L812 0L738 0L665 0L591 0L517 0L443 0L369 0L295 0L222 0L148 0L74 0L0 0Z" fill="#1a67d5"></path><path d="M0 71L74 53L148 51L222 55L295 45L369 70L443 64L517 65L591 64L665 64L738 49L812 66L886 68L960 57L960 0L886 0L812 0L738 0L665 0L591 0L517 0L443 0L369 0L295 0L222 0L148 0L74 0L0 0Z" fill="#1c6ee3"></path><path d="M0 30L74 51L148 54L222 50L295 34L369 35L443 44L517 41L591 37L665 51L738 44L812 35L886 31L960 48L960 0L886 0L812 0L738 0L665 0L591 0L517 0L443 0L369 0L295 0L222 0L148 0L74 0L0 0Z" fill="#1e74f1"></path><path d="M0 17L74 20L148 18L222 28L295 21L369 31L443 16L517 29L591 23L665 25L738 29L812 37L886 28L960 35L960 0L886 0L812 0L738 0L665 0L591 0L517 0L443 0L369 0L295 0L222 0L148 0L74 0L0 0Z" fill="#207bff"></path></svg>