<svg id="visual" viewBox="0 0 960 390" width="960" height="390" xmlns="http://www.w3.org/2000/svg" xmlns:xlink="http://www.w3.org/1999/xlink" version="1.1"><rect x="0" y="0" width="960" height="390" fill="#0D1821"></rect><path d="M0 238L74 239L148 248L222 259L295 238L369 212L443 232L517 240L591 190L665 200L738 219L812 228L886 230L960 237L960 391L886 391L812 391L738 391L665 391L591 391L517 391L443 391L369 391L295 391L222 391L148 391L74 391L0 391Z" fill="#164892"></path><path d="M0 243L74 265L148 271L222 211L295 211L369 239L443 226L517 247L591 234L665 226L738 261L812 271L886 209L960 253L960 391L886 391L812 391L738 391L665 391L591 391L517 391L443 391L369 391L295 391L222 391L148 391L74 391L0 391Z" fill="#174e9f"></path><path d="M0 232L74 276L148 247L222 286L295 267L369 239L443 279L517 264L591 233L665 241L738 235L812 242L886 272L960 250L960 391L886 391L812 391L738 391L665 391L591 391L517 391L443 391L369 391L295 391L222 391L148 391L74 391L0 391Z" fill="#1754ac"></path><path d="M0 272L74 274L148 297L222 300L295 267L369 255L443 261L517 275L591 278L665 248L738 299L812 273L886 246L960 290L960 391L886 391L812 391L738 391L665 391L591 391L517 391L443 391L369 391L295 391L222 391L148 391L74 391L0 391Z" fill="#185bb9"></path><path d="M0 271L74 289L148 295L222 290L295 314L369 297L443 274L517 298L591 278L665 278L738 288L812 292L886 269L960 310L960 391L886 391L812 391L738 391L665 391L591 391L517 391L443 391L369 391L295 391L222 391L148 391L74 391L0 391Z" fill="#1961c7"></path><path d="M0 324L74 289L148 303L222 297L295 302L369 306L443 308L517 310L591 291L665 325L738 286L812 323L886 313L960 302L960 391L886 391L812 391L738 391L665 391L591 391L517 391L443 391L369 391L295 391L222 391L148 391L74 391L0 391Z" fill="#1a67d5"></path><path d="M0 318L74 325L148 327L222 319L295 318L369 315L443 314L517 324L591 326L665 344L738 338L812 317L886 325L960 313L960 391L886 391L812 391L738 391L665 391L591 391L517 391L443 391L369 391L295 391L222 391L148 391L74 391L0 391Z" fill="#1c6ee3"></path><path d="M0 332L74 335L148 333L222 346L295 344L369 354L443 345L517 347L591 338L665 354L738 337L812 346L886 334L960 353L960 391L886 391L812 391L738 391L665 391L591 391L517 391L443 391L369 391L295 391L222 391L148 391L74 391L0 391Z" fill="#1e74f1"></path><path d="M0 356L74 371L148 356L222 359L295 370L369 369L443 358L517 355L591 353L665 364L738 363L812 352L886 362L960 352L960 391L886 391L812 391L738 391L665 391L591 391L517 391L443 391L369 391L295 391L222 391L148 391L74 391L0 391Z" fill="#207bff"></path></svg>