<svg id="visual" viewBox="0 0 900 390" width="900" height="390" xmlns="http://www.w3.org/2000/svg" xmlns:xlink="http://www.w3.org/1999/xlink" version="1.1"><rect x="0" y="0" width="900" height="390" fill="#0D1821"></rect><path d="M0 203L69 138L138 175L208 132L277 142L346 134L415 191L485 141L554 208L623 190L692 205L762 139L831 143L900 191L900 0L831 0L762 0L692 0L623 0L554 0L485 0L415 0L346 0L277 0L208 0L138 0L69 0L0 0Z" fill="#164892"></path><path d="M0 160L69 137L138 174L208 115L277 146L346 175L415 168L485 134L554 177L623 145L692 182L762 133L831 114L900 157L900 0L831 0L762 0L692 0L623 0L554 0L485 0L415 0L346 0L277 0L208 0L138 0L69 0L0 0Z" fill="#174e9f"></path><path d="M0 165L69 165L138 152L208 154L277 147L346 113L415 159L485 119L554 126L623 128L692 147L762 115L831 151L900 136L900 0L831 0L762 0L692 0L623 0L554 0L485 0L415 0L346 0L277 0L208 0L138 0L69 0L0 0Z" fill="#1754ac"></path><path d="M0 93L69 106L138 129L208 143L277 107L346 109L415 103L485 145L554 120L623 108L692 143L762 92L831 92L900 114L900 0L831 0L762 0L692 0L623 0L554 0L485 0L415 0L346 0L277 0L208 0L138 0L69 0L0 0Z" fill="#185bb9"></path><path d="M0 110L69 80L138 89L208 120L277 108L346 110L415 111L485 120L554 106L623 86L692 81L762 112L831 107L900 75L900 0L831 0L762 0L692 0L623 0L554 0L485 0L415 0L346 0L277 0L208 0L138 0L69 0L0 0Z" fill="#1961c7"></path><path d="M0 101L69 72L138 80L208 93L277 102L346 60L415 88L485 90L554 78L623 84L692 93L762 93L831 77L900 61L900 0L831 0L762 0L692 0L623 0L554 0L485 0L415 0L346 0L277 0L208 0L138 0L69 0L0 0Z" fill="#1a67d5"></path><path d="M0 51L69 49L138 79L208 68L277 80L346 49L415 80L485 63L554 76L623 59L692 55L762 69L831 46L900 54L900 0L831 0L762 0L692 0L623 0L554 0L485 0L415 0L346 0L277 0L208 0L138 0L69 0L0 0Z" fill="#1c6ee3"></path><path d="M0 50L69 33L138 46L208 41L277 51L346 58L415 30L485 36L554 59L623 53L692 51L762 45L831 41L900 52L900 0L831 0L762 0L692 0L623 0L554 0L485 0L415 0L346 0L277 0L208 0L138 0L69 0L0 0Z" fill="#1e74f1"></path><path d="M0 33L69 26L138 20L208 24L277 33L346 19L415 37L485 29L554 17L623 29L692 32L762 19L831 19L900 35L900 0L831 0L762 0L692 0L623 0L554 0L485 0L415 0L346 0L277 0L208 0L138 0L69 0L0 0Z" fill="#207bff"></path></svg>