<svg id="visual" viewBox="0 0 900 390" width="900" height="390" xmlns="http://www.w3.org/2000/svg" xmlns:xlink="http://www.w3.org/1999/xlink" version="1.1"><rect x="0" y="0" width="900" height="390" fill="#0D1821"></rect><path d="M0 238L69 239L138 248L208 259L277 238L346 212L415 232L485 240L554 190L623 200L692 219L762 228L831 230L900 237L900 391L831 391L762 391L692 391L623 391L554 391L485 391L415 391L346 391L277 391L208 391L138 391L69 391L0 391Z" fill="#164892"></path><path d="M0 243L69 265L138 271L208 211L277 211L346 239L415 226L485 247L554 234L623 226L692 261L762 271L831 209L900 253L900 391L831 391L762 391L692 391L623 391L554 391L485 391L415 391L346 391L277 391L208 391L138 391L69 391L0 391Z" fill="#174e9f"></path><path d="M0 232L69 276L138 247L208 286L277 267L346 239L415 279L485 264L554 233L623 241L692 235L762 242L831 272L900 250L900 391L831 391L762 391L692 391L623 391L554 391L485 391L415 391L346 391L277 391L208 391L138 391L69 391L0 391Z" fill="#1754ac"></path><path d="M0 272L69 274L138 297L208 300L277 267L346 255L415 261L485 275L554 278L623 248L692 299L762 273L831 246L900 290L900 391L831 391L762 391L692 391L623 391L554 391L485 391L415 391L346 391L277 391L208 391L138 391L69 391L0 391Z" fill="#185bb9"></path><path d="M0 271L69 289L138 295L208 290L277 314L346 297L415 274L485 298L554 278L623 278L692 288L762 292L831 269L900 310L900 391L831 391L762 391L692 391L623 391L554 391L485 391L415 391L346 391L277 391L208 391L138 391L69 391L0 391Z" fill="#1961c7"></path><path d="M0 324L69 289L138 303L208 297L277 302L346 306L415 308L485 310L554 291L623 325L692 286L762 323L831 313L900 302L900 391L831 391L762 391L692 391L623 391L554 391L485 391L415 391L346 391L277 391L208 391L138 391L69 391L0 391Z" fill="#1a67d5"></path><path d="M0 318L69 325L138 327L208 319L277 318L346 315L415 314L485 324L554 326L623 344L692 338L762 317L831 325L900 313L900 391L831 391L762 391L692 391L623 391L554 391L485 391L415 391L346 391L277 391L208 391L138 391L69 391L0 391Z" fill="#1c6ee3"></path><path d="M0 332L69 335L138 333L208 346L277 344L346 354L415 345L485 347L554 338L623 354L692 337L762 346L831 334L900 353L900 391L831 391L762 391L692 391L623 391L554 391L485 391L415 391L346 391L277 391L208 391L138 391L69 391L0 391Z" fill="#1e74f1"></path><path d="M0 356L69 371L138 356L208 359L277 370L346 369L415 358L485 355L554 353L623 364L692 363L762 352L831 362L900 352L900 391L831 391L762 391L692 391L623 391L554 391L485 391L415 391L346 391L277 391L208 391L138 391L69 391L0 391Z" fill="#207bff"></path></svg>