<svg id="visual" viewBox="0 0 900 390" width="900" height="390" xmlns="http://www.w3.org/2000/svg" xmlns:xlink="http://www.w3.org/1999/xlink" version="1.1"><rect x="0" y="0" width="900" height="390" fill="#0D1821"></rect><path d="M0 216L82 142L164 218L245 208L327 195L409 179L491 179L573 135L655 126L736 145L818 125L900 136L900 391L818 391L736 391L655 391L573 391L491 391L409 391L327 391L245 391L164 391L82 391L0 391Z" fill="#164892"></path><path d="M0 241L82 191L164 200L245 224L327 158L409 215L491 185L573 172L655 241L736 227L818 220L900 239L900 391L818 391L736 391L655 391L573 391L491 391L409 391L327 391L245 391L164 391L82 391L0 391Z" fill="#174fa1"></path><path d="M0 259L82 188L164 260L245 236L327 207L409 257L491 250L573 219L655 211L736 191L818 256L900 225L900 391L818 391L736 391L655 391L573 391L491 391L409 391L327 391L245 391L164 391L82 391L0 391Z" fill="#1756b0"></path><path d="M0 266L82 260L164 284L245 279L327 251L409 280L491 216L573 231L655 239L736 247L818 257L900 268L900 391L818 391L736 391L655 391L573 391L491 391L409 391L327 391L245 391L164 391L82 391L0 391Z" fill="#185dbf"></path><path d="M0 283L82 249L164 249L245 252L327 247L409 284L491 299L573 305L655 279L736 264L818 294L900 304L900 391L818 391L736 391L655 391L573 391L491 391L409 391L327 391L245 391L164 391L82 391L0 391Z" fill="#1a65cf"></path><path d="M0 319L82 319L164 320L245 295L327 312L409 289L491 301L573 297L655 323L736 305L818 276L900 315L900 391L818 391L736 391L655 391L573 391L491 391L409 391L327 391L245 391L164 391L82 391L0 391Z" fill="#1b6cdf"></path><path d="M0 308L82 322L164 338L245 325L327 329L409 311L491 323L573 330L655 321L736 330L818 315L900 319L900 391L818 391L736 391L655 391L573 391L491 391L409 391L327 391L245 391L164 391L82 391L0 391Z" fill="#1d73ef"></path><path d="M0 340L82 353L164 368L245 365L327 337L409 369L491 344L573 372L655 345L736 350L818 357L900 369L900 391L818 391L736 391L655 391L573 391L491 391L409 391L327 391L245 391L164 391L82 391L0 391Z" fill="#207bff"></path></svg>